<?xml version="1.0" encoding="iso-8859-1"?>
<!-- Generator: Adobe Illustrator 19.0.0, SVG Export Plug-In . SVG Version: 6.00 Build 0)  -->
<svg version="1.1" id="Capa_1" xmlns="http://www.w3.org/2000/svg" xmlns:xlink="http://www.w3.org/1999/xlink" x="0px" y="0px"
	 viewBox="0 0 391.758 391.758" style="enable-background:new 0 0 391.758 391.758;" xml:space="preserve">
<g>
	<path d="M187.958,191.545c-2.381-2.381-6.274-2.381-8.655,0s-2.381,6.274,0,8.655l4.328,4.328c2.381,2.381,6.274,2.381,8.655,0
		s2.381-6.274,0-8.655L187.958,191.545z M165.273,232.606h-6.121c-3.367,0-6.121,2.755-6.121,6.121c0,3.367,2.755,6.121,6.121,6.121
		h6.121c3.367,0,6.121-2.755,6.121-6.121C171.394,235.361,168.639,232.606,165.273,232.606L165.273,232.606z M326.224,232.606
		h-12.548c3.024-11.734,4.628-24.044,4.628-36.727c0-81.137-65.772-146.909-146.909-146.909s-146.91,65.772-146.91,146.909
		s65.772,146.909,146.909,146.909c41.483,0,78.921-17.219,105.634-44.862l8.6,8.606c-24.534,25.317-57.362,42.512-94.071,47.176
		c-3.03,0.386-6.091,0.679-9.163,0.9c-0.373,0.024-0.741,0.061-1.108,0.086c-3.275,0.214-6.568,0.337-9.892,0.337
		s-6.617-0.122-9.886-0.337c-0.373-0.024-0.741-0.061-1.108-0.086c-3.079-0.22-6.14-0.514-9.163-0.9
		c-43.173-5.485-80.99-28.298-106.234-61.261c-2.65-3.465-5.154-7.039-7.517-10.718c-2.497-3.887-4.836-7.878-6.997-11.985
		c-2.075-3.954-4.034-7.982-5.778-12.12c-8.025-19-12.469-39.861-12.469-61.745s4.444-42.744,12.469-61.739
		c1.745-4.138,3.697-8.166,5.772-12.114c2.161-4.107,4.505-8.104,7.003-11.991c2.363-3.679,4.866-7.254,7.517-10.712
		c25.244-32.969,63.061-55.789,106.234-61.273c3.024-0.38,6.084-0.673,9.163-0.9c0.367-0.024,0.735-0.061,1.108-0.086
		c3.269-0.208,6.562-0.337,9.886-0.337s6.617,0.129,9.892,0.337c0.367,0.024,0.735,0.061,1.108,0.086
		c3.073,0.226,6.133,0.52,9.163,0.9c43.167,5.485,80.984,28.304,106.234,61.273c2.644,3.458,5.148,7.033,7.511,10.706
		c2.497,3.887,4.842,7.884,7.003,11.998c2.075,3.948,4.028,7.976,5.772,12.114c8.025,18.994,12.469,39.855,12.469,61.739
		C330.545,208.525,329.021,220.811,326.224,232.606L326.224,232.606z M330.545,281.576c0,6.764-5.478,12.242-12.242,12.242
		c-1.934,0-3.74-0.49-5.368-1.292c4.573-6.684,8.68-13.718,12.285-21.039C328.434,273.692,330.545,277.383,330.545,281.576
		L330.545,281.576z M241.261,244.848h62.124c-5.374,14.44-13.063,27.76-22.6,39.525L241.261,244.848z M200.941,221.845
		l10.767,10.761h-21.951c-3.367,0-6.121,2.755-6.121,6.121c0,3.367,2.755,6.121,6.121,6.121h34.193l48.7,48.7
		c-25.623,26.554-61.53,43.118-101.257,43.118c-77.629,0-140.788-63.153-140.788-140.788c0-77.629,63.159-140.788,140.788-140.788
		s140.788,63.159,140.788,140.788c0,12.708-1.72,25.011-4.891,36.727h-78.272l-19.416-19.416c-2.381-2.381-6.28-2.381-8.662,0
		C198.56,215.565,198.56,219.464,200.941,221.845L200.941,221.845z M305.302,281.729c-2.363,3.679-4.866,7.254-7.517,10.712
		c-1.285,1.683-2.595,3.354-3.948,4.983l-8.643-8.649c10.602-12.977,19.019-27.809,24.717-43.926h12.891
		c-1.402,4.34-2.963,8.606-4.726,12.775c-1.745,4.138-3.697,8.166-5.778,12.12C310.137,273.851,307.799,277.848,305.302,281.729
		L305.302,281.729z M171.394,379.515c-6.758,0-12.242-5.478-12.242-12.242c0-0.165,0.043-0.318,0.049-0.477
		c4.034,0.282,8.092,0.477,12.193,0.477c4.107,0,8.16-0.196,12.193-0.477c0.006,0.159,0.049,0.312,0.049,0.477
		C183.636,374.037,178.158,379.515,171.394,379.515L171.394,379.515z M24.485,293.818c-6.758,0-12.242-5.478-12.242-12.242
		c0-4.193,2.112-7.884,5.325-10.088c3.605,7.321,7.713,14.354,12.285,21.039C28.231,293.328,26.419,293.818,24.485,293.818
		L24.485,293.818z M12.242,110.182c0-6.758,5.485-12.242,12.242-12.242c1.934,0,3.746,0.49,5.368,1.292
		c-4.573,6.69-8.68,13.718-12.285,21.045C14.354,118.066,12.242,114.375,12.242,110.182L12.242,110.182z M171.394,12.242
		c6.764,0,12.242,5.485,12.242,12.242c0,0.165-0.043,0.318-0.049,0.484c-4.034-0.288-8.086-0.484-12.193-0.484
		c-4.101,0-8.16,0.196-12.193,0.484c-0.006-0.165-0.049-0.318-0.049-0.484C159.152,17.727,164.636,12.242,171.394,12.242
		L171.394,12.242z M318.303,97.939c6.764,0,12.242,5.485,12.242,12.242c0,4.193-2.112,7.884-5.325,10.094
		c-3.605-7.327-7.713-14.354-12.285-21.045C314.563,98.429,316.369,97.939,318.303,97.939L318.303,97.939z M385.636,232.606h-46.833
		c2.583-11.832,3.985-24.111,3.985-36.727c0-22.795-4.487-44.532-12.567-64.432c7.462-4.193,12.567-12.089,12.567-21.265
		c0-13.522-10.963-24.485-24.485-24.485c-4.677,0-9.017,1.341-12.708,3.636c-26.627-33.489-65.491-56.78-109.845-63.091
		c0.037-0.588,0.129-1.157,0.129-1.757C195.879,10.963,184.916,0,171.394,0s-24.485,10.963-24.485,24.485
		c0,0.6,0.092,1.169,0.135,1.757c-44.36,6.311-83.224,29.602-109.845,63.091c-3.697-2.295-8.037-3.636-12.714-3.636
		C10.963,85.697,0,96.66,0,110.182c0,9.176,5.105,17.072,12.573,21.265C4.493,151.347,0,173.083,0,195.879
		c0,22.802,4.493,44.538,12.573,64.432C5.105,264.51,0,272.406,0,281.576c0,13.522,10.963,24.485,24.485,24.485
		c4.677,0,9.017-1.341,12.708-3.63c26.627,33.483,65.491,56.78,109.851,63.091c-0.043,0.588-0.135,1.157-0.135,1.751
		c0,13.522,10.963,24.485,24.485,24.485s24.485-10.963,24.485-24.485c0-0.594-0.092-1.163-0.129-1.751
		c38.453-5.472,72.781-23.707,98.588-50.286l45.113,45.113c2.381,2.381,6.274,2.381,8.655,0s2.381-6.274,0-8.655l-45.542-45.542
		c1.034-1.224,2.032-2.467,3.03-3.722c3.691,2.289,8.031,3.63,12.708,3.63c13.522,0,24.485-10.963,24.485-24.485
		c0-9.17-5.105-17.066-12.567-21.265c2.044-5.038,3.862-10.192,5.43-15.462h49.986c3.367,0,6.121-2.755,6.121-6.121
		C391.758,235.361,389.003,232.606,385.636,232.606L385.636,232.606z"/>
</g>
<g>
</g>
<g>
</g>
<g>
</g>
<g>
</g>
<g>
</g>
<g>
</g>
<g>
</g>
<g>
</g>
<g>
</g>
<g>
</g>
<g>
</g>
<g>
</g>
<g>
</g>
<g>
</g>
<g>
</g>
</svg>
